<?xml version="1.0" encoding="UTF-8"?>
<svg id="Layer_2" data-name="Layer 2" xmlns="http://www.w3.org/2000/svg" viewBox="0 0 55.17 51.19">
  <defs>
    <style>
      .cls-1 {
        fill: #f2f2f2;
      }

      .cls-2 {
        fill: #e6e6e6;
      }
    </style>
  </defs>
  <g id="Layer_1-2" data-name="Layer 1">
    <path class="cls-1" d="M42.22,42.77c.36-.97.16-1.91-.6-2.83-.76-.92-2.13-1.99-4.1-3.23-6.57-4.13-9.01-8.45-7.33-12.98.98-2.64,2.9-4.43,5.76-5.38,2.86-.95,6.07-.76,9.63.56,3.8,1.41,6.5,3.43,8.12,6.05,1.62,2.62,1.9,5.35.84,8.19l-7.99-2.97c.42-1.13.4-2.21-.06-3.23-.46-1.02-1.48-1.81-3.04-2.4-1.35-.5-2.5-.59-3.46-.26s-1.62.96-1.96,1.9c-.33.88-.17,1.74.47,2.6.64.85,1.88,1.84,3.72,2.98,1.84,1.13,3.36,2.2,4.54,3.2,3.65,3.11,4.77,6.56,3.36,10.35-1.01,2.71-2.99,4.47-5.96,5.27-2.96.8-6.3.52-10-.86-2.51-.93-4.57-2.2-6.18-3.81-1.62-1.61-2.69-3.4-3.22-5.35-.53-1.96-.46-3.83.2-5.63l7.58,2.82c-.45,1.44-.33,2.71.37,3.83.7,1.11,1.87,1.98,3.51,2.59,1.53.57,2.79.71,3.79.43,1-.29,1.67-.9,2.02-1.83Z"/>
    <path class="cls-2" d="M23.24,38.5L34.84,0h11.74l-17.82,51.19h-11L0,0h11.71l11.53,38.5Z"/>
  </g>
</svg>